<svg width="127" height="46" viewBox="0 0 127 46" fill="none" xmlns="http://www.w3.org/2000/svg">
<g clip-path="url(#clip0_13_755)">
<path d="M54.2421 45.6498H52.0778C51.6073 45.6498 51.231 45.2898 51.231 44.8498V27.3198C51.231 26.8698 51.6073 26.5098 52.0674 26.5098H60.3375C61.2994 26.5098 62.2508 26.6598 63.15 26.9798C63.955 27.3098 64.6764 27.7598 65.3142 28.3398C65.6278 28.6298 65.8997 28.9598 66.1297 29.3098C66.3702 29.6598 66.5688 30.0398 66.7361 30.4298C67.0707 31.2798 67.238 32.1898 67.2275 33.0998C67.2275 34.5798 66.8511 35.8498 66.1088 36.8898C65.5337 37.7198 64.7601 38.4098 63.84 38.8798C63.6518 38.9698 63.5159 39.1198 63.4532 39.3098C63.4009 39.4998 63.4532 39.6998 63.5891 39.8498C64.2582 40.7198 64.9064 41.5498 65.5128 42.3198C66.1192 43.0998 66.757 43.9198 67.4157 44.7898C67.5516 44.9498 67.6039 45.1698 67.5412 45.3598C67.4889 45.5498 67.2798 45.6498 67.0916 45.6498H64.3314C64.07 45.6498 63.8191 45.5798 63.5891 45.4698C63.3591 45.3698 63.1499 45.2098 62.9931 45.0298C62.6795 44.6298 62.3763 44.2298 62.0731 43.8398L61.153 42.6498L59.3547 40.2198C59.1979 40.0198 58.9888 39.8598 58.7483 39.7498C58.5183 39.6398 58.2673 39.5698 58.006 39.5698H55.9045C55.4444 39.5698 55.068 39.9198 55.0576 40.3598V44.8498C55.0576 45.0598 54.9739 45.2698 54.8276 45.4198C54.6707 45.5698 54.4616 45.6598 54.2421 45.6498ZM55.9045 36.3098H60.3375C60.7034 36.3098 61.0694 36.2298 61.4039 36.0998C61.7803 35.9698 62.1253 35.7698 62.4181 35.4998C62.7108 35.2098 62.9513 34.8698 63.129 34.5098C63.3277 34.0598 63.4218 33.5798 63.4009 33.0998C63.4009 32.7698 63.3591 32.4298 63.2859 32.1098C63.2545 31.9198 63.1918 31.7298 63.129 31.5498C63.0559 31.3698 62.9722 31.1898 62.8886 31.0098C62.6586 30.6498 62.3344 30.3398 61.958 30.1198C61.4667 29.8598 60.9125 29.7298 60.3479 29.7498H55.9149C55.4549 29.7498 55.068 30.0998 55.068 30.5498V35.5098C55.068 35.9498 55.434 36.3198 55.9045 36.3198H55.9254" fill="#0D0D17"/>
<path d="M106.183 42.48L107.334 40.86C107.449 40.68 107.637 40.55 107.856 40.52C108.076 40.49 108.295 40.53 108.484 40.65C109.257 41.11 110.062 41.53 110.888 41.9C111.934 42.39 113.084 42.64 114.255 42.63C114.809 42.64 115.374 42.56 115.896 42.4C116.335 42.28 116.733 42.08 117.099 41.82C117.402 41.6 117.653 41.33 117.841 41.01C117.998 40.74 118.092 40.43 118.082 40.12C118.082 39.76 117.946 39.4 117.695 39.13C117.412 38.85 117.078 38.63 116.712 38.48C116.503 38.39 116.283 38.31 116.053 38.25C115.813 38.18 115.551 38.11 115.248 38.04C114.976 37.97 114.694 37.91 114.412 37.86C114.129 37.81 113.837 37.76 113.523 37.71L112.864 37.59C112.624 37.55 112.383 37.5 112.122 37.45C111.087 37.23 109.676 36.8 108.818 36.4C108.274 36.14 107.773 35.79 107.344 35.38C106.884 34.97 106.528 34.47 106.278 33.92C106.016 33.29 105.88 32.61 105.891 31.93C105.891 30.83 106.131 29.9 106.602 29.13C107.051 28.42 107.668 27.82 108.4 27.38C109.163 26.96 110 26.66 110.857 26.49C111.725 26.32 112.603 26.23 113.481 26.23C114.234 26.23 114.987 26.27 115.729 26.38C116.043 26.43 116.356 26.5 116.67 26.58C117.182 26.71 117.987 26.99 118.406 27.18C118.677 27.31 118.939 27.45 119.2 27.58C119.378 27.69 120.047 28.07 120.267 28.2C120.486 28.33 120.58 28.51 120.622 28.72C120.664 28.93 120.601 29.15 120.465 29.32L119.315 30.89C119.19 31.07 118.981 31.19 118.751 31.23C118.531 31.27 118.301 31.22 118.113 31.1C117.475 30.7 116.796 30.37 116.095 30.11C115.217 29.78 114.276 29.61 113.335 29.61C113.178 29.61 112.99 29.61 112.802 29.64C112.613 29.66 112.415 29.68 112.216 29.72C111.798 29.81 111.401 29.94 111.014 30.11C110.836 30.19 110.669 30.29 110.512 30.4C110.355 30.5 110.209 30.63 110.094 30.77C109.853 31.05 109.728 31.4 109.738 31.76C109.738 32.13 109.895 32.48 110.177 32.73C110.501 33.01 110.888 33.23 111.296 33.38C111.537 33.47 111.777 33.55 112.017 33.61C112.268 33.68 112.519 33.75 112.802 33.82C113.073 33.89 113.345 33.95 113.607 34C113.868 34.05 116.241 34.53 116.524 34.59C116.806 34.65 117.444 34.83 117.799 34.94C118.27 35.09 118.719 35.29 119.002 35.43C119.253 35.55 119.493 35.69 119.723 35.85C119.859 35.93 119.995 36.02 120.12 36.12C120.235 36.22 120.35 36.32 120.465 36.43C120.915 36.86 121.27 37.38 121.5 37.95C121.793 38.65 121.929 39.4 121.908 40.15C121.929 41.04 121.741 41.92 121.364 42.74C121.009 43.46 120.476 44.08 119.807 44.54C119.085 45.06 118.27 45.43 117.402 45.64C116.398 45.89 115.353 46.01 114.318 46.01C113.387 46.03 112.446 45.96 111.537 45.8C110.794 45.68 110.073 45.47 109.372 45.19C109.048 45.07 108.724 44.93 108.41 44.79C108.097 44.65 107.794 44.48 107.511 44.31C107.334 44.2 107.145 44.1 106.968 43.98C106.79 43.87 106.591 43.74 106.393 43.6C106.204 43.49 106.068 43.31 106.037 43.1C106.006 42.89 106.058 42.68 106.183 42.5" fill="#0D0D17"/>
<path d="M33.7285 42.56C33.4776 42.56 33.2267 42.64 33.0176 42.77C32.798 42.9 32.6203 43.07 32.4948 43.28L31.6584 44.89C31.397 45.4 30.8534 45.64 30.4247 45.64H27.8527C27.3822 45.64 27.2254 45.28 27.4136 44.91L37.1579 26.3C37.2729 26.08 37.5134 25.98 37.712 25.98C37.9107 25.98 38.1616 26.09 38.2661 26.3L48.0104 44.91C48.2091 45.28 48.0523 45.64 47.5713 45.64H44.9993C44.5707 45.64 44.027 45.4 43.7656 44.89L42.9292 43.28C42.8037 43.07 42.626 42.9 42.4064 42.77C42.1973 42.63 41.9464 42.56 41.6955 42.56H33.7285ZM37.3356 34.1L35.1505 38.53C35.0564 38.69 35.0564 38.89 35.14 39.05C35.2446 39.21 35.4328 39.3 35.6314 39.28H39.7926C39.9912 39.3 40.1794 39.21 40.284 39.05C40.3676 38.88 40.3572 38.69 40.2735 38.53L38.0884 34.1C37.9943 33.88 37.8688 33.78 37.7225 33.78C37.5761 33.78 37.4506 33.89 37.3565 34.1" fill="#0D0D17"/>
<path d="M91.9122 26.9299V44.8399C91.9122 45.0499 91.8286 45.2599 91.6718 45.4099C91.5254 45.5699 91.3163 45.6499 91.0967 45.6499H88.9325C88.7025 45.6499 88.4934 45.5699 88.3365 45.4099C88.1797 45.2599 88.0856 45.0599 88.0856 44.8399V36.7899C88.0856 36.5599 88.0333 36.4199 87.9392 36.3799C87.8451 36.3399 87.7092 36.3799 87.5629 36.5999L82.4084 42.5299C82.2829 42.6999 82.0843 42.7999 81.8752 42.7999C81.6661 42.7999 81.457 42.6999 81.342 42.5299L76.1457 36.5799C75.9993 36.4099 75.8739 36.3399 75.7693 36.3699C75.6648 36.3999 75.602 36.5299 75.602 36.7699V44.8199C75.602 45.0299 75.5184 45.2399 75.3616 45.3899C75.2047 45.5499 74.9852 45.6399 74.7552 45.6299H72.6223C72.1518 45.6299 71.7754 45.2599 71.7754 44.8199V26.9299C71.765 26.8399 71.7963 26.7399 71.8591 26.6699C71.9218 26.5999 72.0159 26.5499 72.11 26.5399C72.3191 26.5099 72.5282 26.5899 72.6537 26.7499L81.2792 36.9699C81.4256 37.1199 81.6243 37.1999 81.8334 37.1999C82.0425 37.1999 82.2411 37.1199 82.3875 36.9699L91.0445 26.7799C91.1699 26.6199 91.379 26.5299 91.5881 26.5699C91.7763 26.5899 91.9227 26.7499 91.9122 26.9399" fill="#0D0D17"/>
<path d="M100.297 45.6502H98.1328C97.9132 45.6502 97.6937 45.5702 97.5473 45.4102C97.3905 45.2602 97.3068 45.0502 97.3173 44.8402V27.3602C97.3173 27.1402 97.3905 26.9402 97.5473 26.7802C97.6937 26.6202 97.9132 26.5402 98.1328 26.5502H100.297C100.517 26.5502 100.736 26.6302 100.893 26.7802C101.06 26.9302 101.144 27.1402 101.144 27.3602V44.8402C101.144 45.0502 101.05 45.2602 100.893 45.4102C100.736 45.5702 100.527 45.6602 100.297 45.6502Z" fill="#0D0D17"/>
<path d="M25.8558 0.58C26.1591 0.19 26.4623 0 26.9641 0C27.466 0 27.6751 0.1 28.0724 0.58L40.7232 17.51H34.0423C32.725 17.51 31.8153 17.99 31.1148 18.96L22.8238 34.73H0L25.8558 0.58Z" fill="#4E1683"/>
<path d="M124.512 26.8403H125.306C125.39 26.8403 125.474 26.8503 125.557 26.8803C125.63 26.9103 125.693 26.9403 125.756 26.9903C125.808 27.0403 125.85 27.1003 125.881 27.1703C125.913 27.2403 125.923 27.3203 125.923 27.4003C125.923 27.4603 125.923 27.5303 125.892 27.5903C125.871 27.6403 125.85 27.6903 125.808 27.7303C125.777 27.7603 125.745 27.8003 125.704 27.8203C125.672 27.8403 125.63 27.8603 125.599 27.8703V27.8903L125.62 27.9203C125.62 27.9203 125.641 27.9503 125.651 27.9703L125.986 28.6203H125.505L125.191 27.9703H124.951V28.6203H124.522V26.8503L124.512 26.8403ZM125.223 27.6603C125.296 27.6603 125.369 27.6403 125.421 27.5903C125.474 27.5403 125.505 27.4703 125.495 27.4003C125.495 27.3303 125.474 27.2603 125.421 27.2103C125.369 27.1603 125.296 27.1403 125.223 27.1403H124.94V27.6703H125.223V27.6603Z" fill="#0D0D17"/>
<path d="M125.17 25.9902C124.156 25.9902 123.341 26.7702 123.341 27.7402C123.341 28.7102 124.156 29.4902 125.17 29.4902C126.185 29.4902 127 28.7102 127 27.7402C127 26.7702 126.185 25.9902 125.17 25.9902ZM125.17 29.0902C124.386 29.0902 123.759 28.4802 123.759 27.7402C123.759 27.0002 124.397 26.3902 125.17 26.3902C125.944 26.3902 126.582 27.0002 126.582 27.7402C126.582 28.4802 125.944 29.0902 125.17 29.0902Z" fill="#0D0D17"/>
</g>
<defs>
<clipPath id="clip0_13_755">
<rect width="127" height="46" fill="white"/>
</clipPath>
</defs>
</svg>
