<svg width="268" height="81" viewBox="0 0 268 81" fill="none" xmlns="http://www.w3.org/2000/svg">
<g clip-path="url(#clip0_30830_196601)">
<path d="M25.7499 47.5218C38.0049 47.5218 47.9166 37.5874 47.9166 25.3044C47.9166 13.0213 38.0049 3.08698 25.7499 3.08698C13.4949 3.08698 3.58325 13.0213 3.58325 25.3044C3.58325 37.5874 13.4949 47.5218 25.7499 47.5218Z" fill="#7941E0"/>
<path d="M50.0067 2.83304C51.1783 1.05565 53.11 1.05565 54.3133 2.83304L72.11 29.5891L78 38.4761H67.74C65.65 38.5078 62.99 39.7774 61.8183 41.523L40.6017 74.5H2L18.5617 49.7752C20.8417 50.4735 23.2483 50.8226 25.75 50.8226C39.7467 50.8226 51.0833 39.333 51.0833 25.1457C51.0833 19.147 49.0567 13.6561 45.6683 9.27609L50.0067 2.8013V2.83304Z" fill="#FAFAFA"/>
<path d="M32.4316 17.1157L31.2283 16.2904C30.785 16.0048 30.215 16.1 29.93 16.5444L19.29 32.16C19.005 32.6044 19.1 33.1757 19.5433 33.4613L20.7466 34.2865C21.19 34.5722 21.76 34.477 22.045 34.0326L32.685 18.417C32.97 17.9726 32.875 17.4013 32.4316 17.1157Z" fill="#FAFAFA"/>
<path d="M42.6915 24.9869C43.1032 25.3995 43.1032 26.0343 42.6915 26.4469L41.2665 27.8752L38.5749 30.5413C38.1632 30.9539 37.4982 30.9539 37.0865 30.5413L36.4215 29.8748C36.0099 29.4622 36.0099 28.8274 36.4215 28.4148L38.3849 26.4469C38.7965 26.0343 38.7965 25.3995 38.3849 24.9869L36.4215 23.0191C36.0099 22.6065 36.0099 21.9717 36.4215 21.5591L37.0865 20.8926C37.4982 20.48 38.1632 20.48 38.5749 20.8926L42.6915 25.0187V24.9869Z" fill="#FAFAFA"/>
<path d="M8.58669 26.32C8.23836 25.9708 8.23836 25.4313 8.58669 25.0822L10.1067 23.5587L12.8617 20.7974C13.21 20.4482 13.78 20.4482 14.1284 20.7974L15.015 21.6861C15.3634 22.0352 15.3634 22.5748 15.015 22.9239L12.83 25.0822C12.4817 25.4313 12.4817 25.9708 12.83 26.32L14.9834 28.4782C15.3317 28.8274 15.3317 29.3669 14.9834 29.7161L14.0967 30.6048C13.7484 30.9539 13.1784 30.9539 12.83 30.6048L8.52336 26.2882L8.58669 26.32Z" fill="#FAFAFA"/>
</g>
<path d="M259.88 74.9644C255.106 74.9644 251.678 71.5851 251.678 66.7897C251.678 62.0265 255.106 58.6472 259.88 58.6472C263.052 58.6472 264.975 60.0311 266 61.4472L263.341 63.9575C262.604 62.8633 261.482 62.2839 260.072 62.2839C257.605 62.2839 255.875 64.0862 255.875 66.7897C255.875 69.4931 257.605 71.3276 260.072 71.3276C261.482 71.3276 262.604 70.6839 263.341 69.654L266 72.1322C264.975 73.5805 263.052 74.9644 259.88 74.9644Z" fill="#FAFAFA"/>
<path d="M242.234 74.9644C237.524 74.9644 233.967 71.7782 233.967 66.7897C233.967 62.2839 237.268 58.6472 241.978 58.6472C246.592 58.6472 249.732 62.123 249.732 67.2081V68.1092H238.229C238.485 70.0724 240.055 71.7138 242.683 71.7138C243.996 71.7138 245.823 71.1345 246.816 70.169L248.61 72.8081C247.072 74.2242 244.637 74.9644 242.234 74.9644ZM245.791 65.3414C245.694 63.861 244.669 61.8977 241.978 61.8977C239.446 61.8977 238.357 63.7966 238.165 65.3414H245.791Z" fill="#FAFAFA"/>
<path d="M223.438 74.9643C219.337 74.9643 216.389 73.5804 214.403 71.5528L216.87 68.0769C218.376 69.6539 220.715 70.9735 223.663 70.9735C226.162 70.9735 227.379 69.8149 227.379 68.5919C227.379 64.7942 215.076 67.4011 215.076 59.3229C215.076 55.7505 218.152 52.7896 223.182 52.7896C226.578 52.7896 229.398 53.8195 231.513 55.7827L228.981 59.1298C227.251 57.5206 224.944 56.7804 222.765 56.7804C220.811 56.7804 219.722 57.6494 219.722 58.9367C219.722 62.3482 231.993 60.0632 231.993 68.0769C231.993 72.0034 229.206 74.9643 223.438 74.9643Z" fill="#FAFAFA"/>
<path d="M205.912 74.9644C204.085 74.9644 202.387 74.192 201.137 72.5828V80.5H197.068V59.0334H201.137V60.9966C202.323 59.484 204.021 58.6472 205.912 58.6472C209.885 58.6472 212.768 61.6081 212.768 66.7897C212.768 71.9713 209.885 74.9644 205.912 74.9644ZM204.63 71.3276C206.969 71.3276 208.539 69.4931 208.539 66.7897C208.539 64.1184 206.969 62.2839 204.63 62.2839C203.316 62.2839 201.81 63.0564 201.137 64.0541V69.5575C201.81 70.523 203.316 71.3276 204.63 71.3276Z" fill="#FAFAFA"/>
<path d="M187.231 74.9644C185.405 74.9644 183.707 74.192 182.457 72.5828V80.5H178.388V59.0334H182.457V60.9966C183.643 59.484 185.341 58.6472 187.231 58.6472C191.204 58.6472 194.088 61.6081 194.088 66.7897C194.088 71.9713 191.204 74.9644 187.231 74.9644ZM185.95 71.3276C188.289 71.3276 189.859 69.4931 189.859 66.7897C189.859 64.1184 188.289 62.2839 185.95 62.2839C184.636 62.2839 183.13 63.0564 182.457 64.0541V69.5575C183.13 70.523 184.636 71.3276 185.95 71.3276Z" fill="#FAFAFA"/>
<path d="M176.511 74.5781H171.32L170.006 70.9414H160.842L159.497 74.5781H154.306L162.573 53.1115H168.276L176.511 74.5781ZM168.757 66.9184L165.424 57.6816L162.092 66.9184H168.757Z" fill="#FAFAFA"/>
<path d="M138.592 74.9644C135.901 74.9644 133.306 74.0632 131.671 72.5506L133.434 69.6862C134.555 70.7483 136.862 71.8104 138.785 71.8104C140.547 71.8104 141.38 71.1023 141.38 70.1368C141.38 67.5621 132.184 69.654 132.184 63.5391C132.184 60.9322 134.459 58.6472 138.528 58.6472C141.156 58.6472 143.238 59.5483 144.776 60.7713L143.142 63.5713C142.213 62.5736 140.451 61.769 138.56 61.769C137.086 61.769 136.125 62.4449 136.125 63.3138C136.125 65.6311 145.289 63.7 145.289 69.9759C145.289 72.8081 142.886 74.9644 138.592 74.9644Z" fill="#FAFAFA"/>
<path d="M126.932 57.3598C125.618 57.3598 124.496 56.2655 124.496 54.9138C124.496 53.5621 125.618 52.5 126.932 52.5C128.277 52.5 129.367 53.5621 129.367 54.9138C129.367 56.2655 128.277 57.3598 126.932 57.3598ZM128.982 74.5781H124.913V59.0333H128.982V74.5781Z" fill="#FAFAFA"/>
<path d="M120.922 74.5782H116.821V64.7621C116.821 63.3138 116.18 62.2839 114.514 62.2839C113.072 62.2839 111.886 63.2495 111.31 64.0862V74.5782H107.208V64.7621C107.208 63.3138 106.567 62.2839 104.901 62.2839C103.492 62.2839 102.306 63.2495 101.697 64.1184V74.5782H97.628V59.0334H101.697V61.061C102.338 60.1276 104.389 58.6472 106.76 58.6472C109.035 58.6472 110.476 59.7092 111.053 61.4794C111.95 60.0633 114.001 58.6472 116.372 58.6472C119.224 58.6472 120.922 60.1598 120.922 63.346V74.5782Z" fill="#FAFAFA"/>
<path d="M90.1511 74.5782H86.0819V59.0334H90.1511V61.1575C91.2405 59.7736 93.163 58.6472 95.0855 58.6472V62.638C94.7971 62.5736 94.4126 62.5414 93.964 62.5414C92.6183 62.5414 90.824 63.3138 90.1511 64.3115V74.5782Z" fill="#FAFAFA"/>
<path d="M84.2045 74.5781H79.0139L77.7002 70.9414H68.5364L67.1907 74.5781H62L70.2666 53.1115H75.9699L84.2045 74.5781ZM76.4506 66.9184L73.1183 57.6816L69.786 66.9184H76.4506Z" fill="#FAFAFA"/>
<defs>
<clipPath id="clip0_30830_196601">
<rect width="76" height="73" fill="white" transform="translate(2 1.5)"/>
</clipPath>
</defs>
</svg>
